<svg width="243" height="207" viewBox="0 0 243 207" fill="none" xmlns="http://www.w3.org/2000/svg">
<g clip-path="url(#clip0_43_34)">
<path d="M125.983 30.7127C126.169 31.2462 126.469 31.7327 126.862 32.1377C127.256 32.5427 127.733 32.8564 128.261 33.0568C128.788 33.2572 129.354 33.3393 129.916 33.2974C130.479 33.2555 131.026 33.0907 131.518 32.8144L165.002 43.5634L176.084 34.8621L132.894 27.2937C132.376 26.4967 131.583 25.9178 130.667 25.6667C129.75 25.4156 128.773 25.5096 127.922 25.9311C127.07 26.3525 126.402 27.072 126.045 27.9533C125.687 28.8346 125.666 29.8164 125.983 30.7127Z" fill="#FFB6B6"/>
<path d="M188.001 45.0774C188.001 45.0774 187.698 44.3328 183.691 45.9529C178.718 47.9639 152.242 46.6195 150.775 39.3948C150.307 39.8787 149.691 40.1929 149.024 40.2878C148.358 40.3828 147.679 40.2531 147.094 39.9193L151.233 30.8276C153.387 30.1384 154.558 29.6284 154.697 30.5065L161.175 30.1252L187.409 34.5448L188.134 43.6076L188.001 45.0774Z" fill="#F2F2F2"/>
<path d="M179.751 35.9623L192.779 34.8335L204.993 40.4212L211.852 135.374L184.936 122.916L173.389 126.114L179.751 35.9623Z" fill="#F2F2F2"/>
<path d="M211.804 201.679L206.862 201.678L204.511 182.602L211.804 182.602L211.804 201.679Z" fill="#FFB6B6"/>
<path d="M213.064 206.473L197.13 206.472V206.27C197.13 204.624 197.783 203.046 198.946 201.882C200.109 200.718 201.687 200.064 203.332 200.064L206.243 197.854L211.673 200.064L213.064 200.064L213.064 206.473Z" fill="#2F2E41"/>
<path d="M192.653 198.562L187.833 199.651L181.341 181.562L188.456 179.954L192.653 198.562Z" fill="#FFB6B6"/>
<path d="M194.938 202.961L179.395 206.473L179.351 206.276C178.988 204.67 179.278 202.986 180.157 201.594C181.035 200.203 182.43 199.217 184.034 198.854L184.035 198.854L186.387 196.057L192.171 197.016L193.528 196.709L194.938 202.961Z" fill="#2F2E41"/>
<path d="M218.062 85.0558C220.379 92.0492 220.134 99.6405 217.506 107.788L216.382 153.66C218.24 155.706 218.524 174.016 215.662 179.99C211.84 187.968 215.355 189.035 212.653 194.328H204.818L201.196 170.349L200.938 150.913C199.897 148.447 200.752 139.768 200.752 139.768L200.451 121.772L186.323 153.297C192.724 158.78 192.147 176.492 192.253 184.348L194.352 193.618L184.708 194.481L180.452 181.909L175.667 174.162C173.229 160.436 172.506 150.359 174.585 146.242L188.767 93.4326L218.062 85.0558Z" fill="#2F2E41"/>
<path d="M219.066 82.7217L217.775 80.1362C216.193 70.3321 214.631 61.1876 216.754 52.9622C216.887 45.7817 214.669 39.0358 208.512 35.3521L205.734 33.6895L204.328 30.1202L191.381 30.4367L191.343 35.1157L186.706 42.5174V42.5479L186.995 82.8246L188.276 86.9812L186.344 91.8165L187.369 94.9016L212.894 90.8174L215.862 90.3408C216.205 90.231 216.535 90.0866 216.849 89.9099C217.914 89.3179 218.749 88.3844 219.219 87.2596C219.245 87.1948 219.268 87.1337 219.291 87.0689C219.491 86.5439 219.607 85.9905 219.634 85.4292C219.681 84.4928 219.485 83.5603 219.066 82.7217Z" fill="#3F3D56"/>
<path opacity="0.2" d="M219.634 85.4292C219.607 85.9905 219.491 86.544 219.291 87.069L216.849 89.9099C216.535 90.0867 216.205 90.2311 215.862 90.3408L212.894 90.8175L217.188 82.737L207.75 62.0571L219.634 85.4292Z" fill="black"/>
<path d="M19.1 168.981C16.101 169.011 13.1044 168.803 10.1383 168.36C7.37646 167.892 5.97606 167.228 5.97606 166.386L5.97708 166.371L11.1292 127.112L8.53439 119.667C8.42546 119.355 8.39331 119.021 8.44065 118.693C8.48799 118.365 8.61343 118.054 8.80638 117.785C8.99934 117.516 9.25412 117.298 9.54922 117.148C9.84432 116.999 10.1711 116.922 10.5018 116.926L27.5659 117.104C27.8906 117.107 28.21 117.187 28.4978 117.338C28.7857 117.488 29.034 117.704 29.2225 117.969C29.411 118.233 29.5344 118.539 29.5825 118.86C29.6306 119.182 29.6022 119.51 29.4995 119.818L27.0706 127.111L32.2228 166.371C32.2239 168.434 23.9744 168.981 19.1 168.981Z" fill="#F2F2F2"/>
<path d="M17.7095 163.454H9.37421V163.923H17.7095V163.454Z" fill="#CCCCCC"/>
<path d="M17.7095 160.64H9.37421V161.109H17.7095V160.64Z" fill="#CCCCCC"/>
<path d="M17.7095 157.825H9.37421V158.294H17.7095V157.825Z" fill="#CCCCCC"/>
<path d="M17.7095 155.01H9.37421V155.479H17.7095V155.01Z" fill="#CCCCCC"/>
<path d="M17.7095 152.196H9.37421V152.665H17.7095V152.196Z" fill="#CCCCCC"/>
<path d="M94.0937 168.981C91.0947 169.011 88.0981 168.803 85.132 168.36C82.3702 167.892 80.9698 167.228 80.9698 166.386L80.9708 166.371L86.1229 127.112L83.5281 119.667C83.4192 119.355 83.387 119.021 83.4343 118.693C83.4817 118.365 83.6071 118.054 83.8001 117.785C83.993 117.516 84.2478 117.298 84.5429 117.148C84.838 116.999 85.1647 116.922 85.4955 116.926L102.56 117.104C102.884 117.107 103.204 117.187 103.492 117.338C103.779 117.488 104.028 117.704 104.216 117.969C104.405 118.233 104.528 118.539 104.576 118.86C104.624 119.182 104.596 119.51 104.493 119.818L102.064 127.111L107.217 166.371C107.218 168.434 98.9681 168.981 94.0937 168.981Z" fill="#F2F2F2"/>
<path d="M92.7032 163.454H84.3679V163.923H92.7032V163.454Z" fill="#CCCCCC"/>
<path d="M92.7032 160.64H84.3679V161.109H92.7032V160.64Z" fill="#CCCCCC"/>
<path d="M92.7032 157.825H84.3679V158.294H92.7032V157.825Z" fill="#CCCCCC"/>
<path d="M92.7032 155.01H84.3679V155.479H92.7032V155.01Z" fill="#CCCCCC"/>
<path d="M92.7032 152.196H84.3679V152.665H92.7032V152.196Z" fill="#CCCCCC"/>
<path d="M58.9404 168.981C55.9414 169.011 52.9448 168.803 49.9787 168.36C47.2169 167.892 45.8165 167.228 45.8165 166.386L45.8175 166.371L50.9696 127.112L48.3748 119.667C48.2659 119.355 48.2337 119.021 48.2811 118.693C48.3284 118.365 48.4538 118.054 48.6468 117.785C48.8397 117.516 49.0945 117.298 49.3896 117.148C49.6847 116.999 50.0115 116.922 50.3422 116.926L67.4063 117.104C67.7311 117.107 68.0504 117.187 68.3383 117.338C68.6261 117.488 68.8745 117.704 69.0629 117.969C69.2514 118.233 69.3748 118.539 69.4229 118.86C69.471 119.182 69.4426 119.51 69.3399 119.818L66.911 127.111L72.0632 166.371C72.0643 168.434 63.8148 168.981 58.9404 168.981Z" fill="#F2F2F2"/>
<path d="M57.5499 163.454H49.2146V163.923H57.5499V163.454Z" fill="#CCCCCC"/>
<path d="M57.5499 160.64H49.2146V161.109H57.5499V160.64Z" fill="#CCCCCC"/>
<path d="M57.5499 157.825H49.2146V158.294H57.5499V157.825Z" fill="#CCCCCC"/>
<path d="M57.5499 155.01H49.2146V155.479H57.5499V155.01Z" fill="#CCCCCC"/>
<path d="M57.5499 152.196H49.2146V152.665H57.5499V152.196Z" fill="#CCCCCC"/>
<path d="M114.365 171.898H98.4292V145.16H114.365C115.236 145.16 116.07 144.814 116.685 144.198C117.301 143.582 117.646 142.747 117.646 141.876C117.646 141.005 117.301 140.17 116.685 139.554C116.07 138.938 115.236 138.592 114.365 138.592H3.28097C2.4108 138.592 1.57628 138.938 0.960977 139.554C0.345675 140.17 0 141.005 0 141.876C0 142.747 0.345675 143.582 0.960977 144.198C1.57628 144.814 2.4108 145.16 3.28097 145.16H16.8736V171.898H3.28097C2.4108 171.898 1.57628 172.244 0.960977 172.859C0.345675 173.475 0 174.31 0 175.181C0 176.052 0.345675 176.887 0.960977 177.503C1.57628 178.119 2.4108 178.465 3.28097 178.465H114.365C114.797 178.465 115.224 178.381 115.622 178.216C116.021 178.051 116.383 177.809 116.688 177.504C116.993 177.199 117.235 176.837 117.4 176.439C117.565 176.04 117.65 175.613 117.65 175.181C117.65 174.75 117.565 174.322 117.4 173.924C117.235 173.525 116.993 173.163 116.688 172.858C116.383 172.553 116.021 172.311 115.622 172.147C115.224 171.982 114.797 171.897 114.365 171.898ZM23.4355 171.898V145.16H91.8673V171.898H23.4355Z" fill="#CCCCCC"/>
<path d="M111.785 206.517C103.634 206.517 96.0316 205.99 90.3794 205.033C83.4064 203.852 80.0167 202.137 80.0167 199.789L80.0205 199.715L92.2593 106.448L86.1319 88.8688C85.8378 88.0417 85.7498 87.1554 85.8753 86.2866C86.0008 85.4177 86.3361 84.5926 86.8522 83.8828C87.3563 83.1619 88.0306 82.577 88.8151 82.1799C89.5997 81.7829 90.4701 81.586 91.349 81.607L131.924 82.03C132.784 82.0389 133.63 82.2511 134.392 82.6493C135.155 83.0475 135.812 83.6204 136.312 84.3214C136.811 85.0223 137.138 85.8313 137.265 86.6826C137.393 87.5339 137.317 88.4033 137.045 89.2199L131.309 106.441L143.55 199.716V199.752C143.552 202.284 139.714 204.081 131.818 205.248C124.062 206.393 115.224 206.517 111.785 206.517Z" fill="white"/>
<path d="M111.785 206.517C103.634 206.517 96.0316 205.99 90.3794 205.033C83.4064 203.852 80.0167 202.137 80.0167 199.789L80.0205 199.715L92.2593 106.448L86.1319 88.8688C85.8378 88.0417 85.7498 87.1554 85.8753 86.2866C86.0008 85.4177 86.3361 84.5926 86.8522 83.8828C87.3563 83.1619 88.0306 82.577 88.8151 82.1799C89.5997 81.7829 90.4701 81.586 91.349 81.607L131.924 82.03C132.784 82.0389 133.63 82.2511 134.392 82.6493C135.155 83.0475 135.812 83.6204 136.312 84.3214C136.811 85.0223 137.138 85.8313 137.265 86.6826C137.393 87.5339 137.317 88.4033 137.045 89.2199L131.309 106.441L143.55 199.716V199.752C143.552 202.284 139.714 204.081 131.818 205.248C124.062 206.393 115.224 206.517 111.785 206.517ZM91.2369 82.7215C90.554 82.7208 89.881 82.8852 89.2752 83.2007C88.6695 83.5162 88.1488 83.9735 87.7576 84.5337C87.3469 85.0985 87.0801 85.7551 86.9802 86.4464C86.8803 87.1377 86.9505 87.843 87.1845 88.5011L93.399 106.33L93.3818 106.462L81.1292 199.825C81.1314 200.74 82.3571 202.543 90.5655 203.932C96.1582 204.879 103.694 205.401 111.785 205.401C118.896 205.401 126.325 204.931 131.656 204.144C138.465 203.139 142.388 201.551 142.435 199.786L130.171 106.333L135.988 88.8672C136.204 88.2173 136.264 87.5255 136.163 86.8481C136.061 86.1707 135.801 85.5269 135.404 84.9692C135.007 84.4114 134.483 83.9555 133.877 83.6386C133.27 83.3216 132.597 83.1527 131.912 83.1455L91.3313 82.7225C91.2997 82.7217 91.2682 82.7215 91.2369 82.7215Z" fill="#3F3D56"/>
<path opacity="0.5" d="M134.914 188.377H88.6554L95.9885 138.751L96.1882 137.383L99.2432 116.723C99.4296 115.463 100.879 116.442 101.904 115.686C108.268 110.996 114.708 110.86 121.204 115.381C122.209 116.08 123.596 115.262 123.783 116.471L126.992 137.194L127.302 139.198L134.914 188.377Z" fill="#6C63FF"/>
<path d="M129.205 195.326H94.3153C93.4006 195.326 92.4967 195.129 91.665 194.748C90.8334 194.367 90.0936 193.811 89.4961 193.118C88.8985 192.425 88.4572 191.611 88.2022 190.732C87.9471 189.853 87.8844 188.929 88.0183 188.023L98.212 119.036C98.2646 118.684 98.4094 118.351 98.6317 118.072C98.854 117.793 99.1459 117.578 99.4779 117.449C99.8099 117.319 100.17 117.28 100.522 117.335C100.875 117.389 101.206 117.536 101.483 117.76C107.696 122.741 114.467 122.629 121.608 117.428C121.885 117.226 122.209 117.098 122.55 117.059C122.891 117.019 123.236 117.068 123.552 117.202C123.874 117.334 124.157 117.548 124.373 117.823C124.588 118.097 124.729 118.423 124.781 118.768L135.496 187.98C135.636 188.889 135.579 189.817 135.327 190.7C135.076 191.584 134.636 192.403 134.038 193.101C133.441 193.799 132.699 194.359 131.865 194.743C131.031 195.127 130.123 195.326 129.205 195.326Z" fill="#6C63FF"/>
<path d="M115.166 187.239H95.3434V188.354H115.166V187.239Z" fill="white"/>
<path d="M115.166 180.545H95.3434V181.661H115.166V180.545Z" fill="white"/>
<path d="M115.166 173.852H95.3434V174.967H115.166V173.852Z" fill="white"/>
<path d="M115.166 167.158H95.3434V168.274H115.166V167.158Z" fill="white"/>
<path d="M115.166 160.465H95.3434V161.58H115.166V160.465Z" fill="white"/>
<path d="M128.237 142.906C126.7 144.434 124.85 145.611 122.816 146.356C120.781 147.101 118.609 147.397 116.45 147.223C113.986 147 111.74 146.08 109.578 144.919C107.343 143.72 105.18 142.287 102.706 141.617C100.538 141.032 97.9685 140.954 96.1069 142.404C95.9548 142.522 95.7689 142.588 95.5765 142.593C95.384 142.598 95.195 142.542 95.0369 142.432L95.2487 140.981C97.3219 139.531 99.8411 139.308 102.31 139.805C107.281 140.809 111.055 144.925 116.149 145.516C118.346 145.764 120.57 145.461 122.622 144.636C124.674 143.81 126.488 142.487 127.903 140.786L127.908 140.781L128.237 142.906Z" fill="white"/>
<path d="M243 206.546C243 206.606 242.989 206.665 242.966 206.72C242.943 206.775 242.91 206.825 242.868 206.867C242.825 206.91 242.775 206.943 242.72 206.966C242.665 206.989 242.606 207 242.547 207H0.48327C0.363015 207 0.247684 206.952 0.16265 206.867C0.0776168 206.782 0.0298462 206.667 0.0298462 206.546C0.0298462 206.426 0.0776168 206.31 0.16265 206.225C0.247684 206.14 0.363015 206.092 0.48327 206.092H242.547C242.606 206.092 242.665 206.104 242.72 206.127C242.775 206.149 242.825 206.183 242.868 206.225C242.91 206.267 242.943 206.317 242.966 206.372C242.989 206.427 243 206.487 243 206.546Z" fill="#CCCCCC"/>
<path d="M192.706 34.8183L205.734 33.6895L217.948 39.2772L224.807 134.23L197.891 121.772L186.344 124.97L192.706 34.8183Z" fill="#F2F2F2"/>
<path d="M128.406 34.7012C129.669 34.7012 130.693 33.6768 130.693 32.4132C130.693 31.1496 129.669 30.1252 128.406 30.1252C127.144 30.1252 126.12 31.1496 126.12 32.4132C126.12 33.6768 127.144 34.7012 128.406 34.7012Z" fill="#6C63FF"/>
<path d="M124.596 62.5387C125.859 62.5387 126.882 61.5143 126.882 60.2507C126.882 58.987 125.859 57.9626 124.596 57.9626C123.334 57.9626 122.31 58.987 122.31 60.2507C122.31 61.5143 123.334 62.5387 124.596 62.5387Z" fill="#6C63FF"/>
<path d="M112.403 78.9361C113.666 78.9361 114.689 77.9118 114.689 76.6481C114.689 75.3845 113.666 74.3601 112.403 74.3601C111.141 74.3601 110.117 75.3845 110.117 76.6481C110.117 77.9118 111.141 78.9361 112.403 78.9361Z" fill="#6C63FF"/>
<path d="M169.476 96.6635V72.1019C169.476 71.6048 169.674 71.1281 170.025 70.7766C170.376 70.4251 170.853 70.2274 171.349 70.2268H189.884C190.381 70.2274 190.857 70.4251 191.208 70.7766C191.559 71.1281 191.757 71.6048 191.757 72.1019V96.6635C191.757 97.1606 191.559 97.6373 191.208 97.9888C190.857 98.3403 190.381 98.538 189.884 98.5386H171.349C170.853 98.538 170.376 98.3403 170.025 97.9888C169.674 97.6373 169.476 97.1606 169.476 96.6635Z" fill="#E6E6E6"/>
<path d="M170.897 89.2449V73.4544C170.898 72.9888 171.083 72.5425 171.412 72.2133C171.741 71.8841 172.187 71.6989 172.652 71.6984H188.581C189.046 71.6989 189.492 71.8841 189.821 72.2133C190.15 72.5425 190.335 72.9888 190.336 73.4544V95.3109C190.335 95.7765 190.15 96.2229 189.821 96.5521C189.492 96.8813 189.046 97.0665 188.581 97.067H178.713C176.641 97.0647 174.655 96.2398 173.189 94.7734C171.724 93.307 170.9 91.3187 170.897 89.2449Z" fill="white"/>
<path d="M173.477 77.8602C173.477 77.4052 173.658 76.969 173.979 76.6473C174.301 76.3256 174.737 76.1447 175.191 76.1442H186.241C186.696 76.1442 187.132 76.325 187.453 76.6468C187.775 76.9686 187.956 77.4051 187.956 77.8602C187.956 78.3153 187.775 78.7518 187.453 79.0736C187.132 79.3954 186.696 79.5762 186.241 79.5762H175.191C174.737 79.5757 174.301 79.3947 173.979 79.073C173.658 78.7513 173.477 78.3151 173.477 77.8602Z" fill="#E6E6E6"/>
<path d="M173.477 83.1989C173.477 82.744 173.658 82.3078 173.979 81.9861C174.301 81.6644 174.737 81.4834 175.191 81.4829H186.241C186.696 81.4829 187.132 81.6637 187.453 81.9855C187.775 82.3073 187.956 82.7438 187.956 83.1989C187.956 83.654 187.775 84.0905 187.453 84.4123C187.132 84.7341 186.696 84.9149 186.241 84.9149H175.191C174.737 84.9144 174.301 84.7335 173.979 84.4118C173.658 84.0901 173.477 83.6539 173.477 83.1989Z" fill="#E6E6E6"/>
<path d="M173.477 88.5377C173.477 88.0827 173.658 87.6465 173.979 87.3248C174.301 87.0031 174.737 86.8222 175.191 86.8217H186.241C186.696 86.8217 187.132 87.0025 187.453 87.3243C187.775 87.6461 187.956 88.0826 187.956 88.5377C187.956 88.9928 187.775 89.4293 187.453 89.7511C187.132 90.0729 186.696 90.2537 186.241 90.2537H175.191C174.737 90.2532 174.301 90.0722 173.979 89.7505C173.658 89.4288 173.477 88.9926 173.477 88.5377Z" fill="#E6E6E6"/>
<path d="M184.575 100.901C185.096 100.685 185.564 100.358 185.946 99.9412C186.327 99.5249 186.613 99.0299 186.782 98.4911C186.952 97.9523 187.002 97.3829 186.927 96.8229C186.853 96.2629 186.658 95.726 186.354 95.25L199.793 83.0319L204.507 64.7805L196.14 64.0837L193.582 78.406L180.768 94.192C180.002 94.7559 179.47 95.5811 179.272 96.5112C179.075 97.4414 179.224 98.4119 179.694 99.2389C180.163 100.066 180.919 100.692 181.819 100.998C182.718 101.304 183.699 101.27 184.575 100.901Z" fill="#FFB6B6"/>
<path d="M205.796 48.2977C205.796 48.2977 207.836 48.3279 206.917 52.5537C206.182 55.9368 203.392 74.975 201.165 79.2341C201.675 79.6744 202.023 80.2718 202.156 80.9323C202.289 81.5927 202.199 82.2787 201.9 82.8821L192.593 79.2685C191.781 77.1554 193.142 76.4986 194.01 76.3091L193.839 69.6811L195.174 52.7863L204.323 48.2496L205.796 48.2977Z" fill="#F2F2F2"/>
<path d="M208.538 17.0214C208.103 20.1903 206.43 23.0571 203.885 24.9918C201.34 26.9266 198.132 27.7711 194.965 27.3398C191.798 26.9084 188.932 25.2365 186.996 22.6914C185.061 20.1463 184.214 16.9362 184.641 13.7665L184.665 13.5952C185.164 10.468 186.872 7.66265 189.42 5.78436C191.968 3.90606 195.151 3.10532 198.283 3.55487C201.416 4.00442 204.246 5.66823 206.163 8.18739C208.081 10.7066 208.932 13.8792 208.534 17.0209L208.538 17.0214Z" fill="#FFB8B8"/>
<path d="M205.469 23.2372C206.088 21.9783 206.724 20.6268 206.55 19.2345C206.376 17.8422 205.011 16.5113 203.672 16.9251C202.871 17.1726 202.265 17.9643 201.428 18.0048C200.276 18.0605 199.615 16.7408 199.256 15.6435L197.796 11.1746C196.393 12.2686 194.766 13.0392 193.032 13.4315C191.297 13.8238 189.498 13.828 187.761 13.4439C186.405 13.1336 185.035 12.5286 184.24 11.3864C183.444 10.2442 183.449 8.4725 184.54 7.6088C185.075 7.18531 185.787 7.02441 186.298 6.57251C186.616 6.29218 186.834 5.91711 186.922 5.50279C187.009 5.08848 186.961 4.65694 186.785 4.27204C186.608 3.88713 186.313 3.56932 185.942 3.36561C185.571 3.16191 185.144 3.08315 184.725 3.14098L188.403 2.68096L187.307 0.697495C188.097 1.32042 189.195 1.40419 190.185 1.22589C191.174 1.04758 192.106 0.639846 193.074 0.367934C197.721 -0.937433 203.122 1.33223 205.445 5.56659C206.35 5.26415 207.325 5.24404 208.242 5.50895C209.158 5.77386 209.973 6.31128 210.578 7.04999C211.562 8.30058 211.83 9.96947 211.868 11.5611C211.94 14.6994 211.256 17.809 209.875 20.6273C209.478 21.5225 208.909 22.3305 208.2 23.0048C207.843 23.3391 207.417 23.5911 206.952 23.7432C206.487 23.8954 205.995 23.9439 205.509 23.8853" fill="#2F2E41"/>
</g>
<defs>
<clipPath id="clip0_43_34">
<rect width="243" height="207" fill="white"/>
</clipPath>
</defs>
</svg>
